<svg xmlns="http://www.w3.org/2000/svg" viewBox="0 0 1000 104.675"><path d="M915.09 103.37c0-.247 5.143-19.029 11.429-41.738 6.286-22.709 11.429-41.471 11.429-41.694 0-.223 4.661-.405 10.357-.405s10.353.241 10.349.536c-.005.295-.475 2.289-1.045 4.431s-.88 4.052-.689 4.243c.191.191 1.867-1.144 3.724-2.967s5.305-4.214 7.662-5.314c3.796-1.771 5.103-2 11.429-2 5.595 0 7.685.288 9.643 1.33 6.93 3.687 10 9.6 10 19.261 0 7.554-1.342 12.755-5.47 21.195-2.686 5.492-4.354 7.81-8.746 12.157-7.997 7.916-15.732 11.414-25.242 11.414-5.347 0-8.233-1.245-11.365-4.904l-2.523-2.947-3.815 13.926-3.815 13.926h-11.655c-6.41 0-11.655-.202-11.655-.449zm50.811-39.691c5.216-2.932 9.189-11.282 9.189-19.314 0-3.72-.251-4.478-2.088-6.315-4.17-4.17-12.065-2.132-16.846 4.348-2.124 2.879-4.638 10.477-4.638 14.02 0 3.115 1.624 7.032 3.326 8.021 2.305 1.34 8.019.947 11.057-.76z" fill="#fff"/><path d="M42.843 41.07C21.766 30.207 4.811 21.211 5.165 21.08c.354-.131 16.69 3.217 36.302 7.44l35.659 7.679 19.431-8.005c10.687-4.403 19.507-7.912 19.6-7.798.146.179-32.789 38.347-34.402 39.869-.325.306-17.835-8.331-38.912-19.195zM562.24 77.252c0-.233-3.524-17.077-7.831-37.431s-7.737-37.102-7.622-37.216c.192-.192 25.918 29.763 26.996 31.434.272.421 9.925-6.02 22.732-15.167 12.243-8.744 22.369-15.789 22.503-15.654.214.214-54.41 72.033-56.116 73.78-.364.373-.662.488-.662.255z" fill="#ed1b24"/><path d="M10.143 99.778c.562-.79 9.837-11.602 20.612-24.028l19.591-22.592 22.909 11.758c12.6 6.467 33.108 16.982 45.574 23.366 12.465 6.384 22.405 11.696 22.089 11.804-.317.108-19.421-3.829-42.455-8.75s-42.229-8.947-42.656-8.947c-.615 0-16.225 6.291-45.663 18.403-.886.364-.886.23 0-1.015zm61.944-70.952c-5.145-1.551-9.105-6.836-9.105-12.151 0-3.311 2.17-7.952 4.619-9.878 6.36-5.003 15.099-3.071 18.743 4.142 1.939 3.839 2.021 7.266.264 11.093-1.608 3.502-3.443 5.196-7.002 6.465-3.079 1.098-4.727 1.17-7.518.329zm78.923 54.67c-6.774-2.117-12.535-6.892-14.941-12.383-2.764-6.309-1.023-18.729 4.028-28.735 5.408-10.713 15.505-18.987 27.524-22.553 6.491-1.926 17.901-1.78 24.027.308 9.794 3.338 13.439 7.874 14.01 17.436l.331 5.536-12.056-.002-12.056-.002-.058-2.61c-.127-5.684-7.198-7.926-12.866-4.08-3.575 2.426-4.23 3.269-6.829 8.786-3.102 6.586-4.419 13.453-3.374 17.599 1.087 4.317 3.04 5.582 7.986 5.171 4.412-.366 7.335-2.243 9.853-6.325l1.717-2.785 11.617-.019 11.617-.019-1.048 2.507c-1.909 4.568-6.31 10.471-9.987 13.395-4.362 3.468-12.063 7.222-17.884 8.718-5.207 1.338-17.409 1.371-21.61.058zm58.37-1.403c0-.183 3.857-14.192 8.571-31.132s8.571-30.941 8.571-31.114c0-.173 14.946-.315 33.214-.315s33.214.142 33.214.315c0 .173-3.857 14.174-8.571 31.114s-8.571 30.941-8.571 31.114c0 .173-5.325.315-11.834.315-10.933 0-11.806-.095-11.47-1.25 1.348-4.629 11.875-43.115 11.875-43.416 0-.206-4.418-.285-9.819-.176l-9.819.199-6.099 22.143-6.099 22.143-11.582.196c-6.37.108-11.582.047-11.582-.136zm101.43 1.42c-9.739-2.703-14.979-9.467-15.563-20.089-.627-11.413 4.318-23.392 13.405-32.475 8.727-8.723 17.922-12.349 31.443-12.4 15.262-.057 23.213 4.707 26.039 15.598 1.369 5.276 1.375 8.633.03 14.983-3.389 15.996-16.811 30.309-32.177 34.311-5.072 1.321-18.525 1.363-23.177.072zm20.948-15.668c3.613-1.51 7.941-6.973 10.066-12.707 3.483-9.398 3.159-17.099-.83-19.713-2.322-1.522-8.366-1.5-11.346.042-9.934 5.137-15.801 28.153-8.226 32.269 2.411 1.31 7.338 1.362 10.336.109zm31.192 35.945c0-.573 20.933-76.888 22.574-82.298.338-1.115 1.491-1.25 10.688-1.25 5.67 0 10.309.192 10.309.426s-.512 2.187-1.137 4.339c-.626 2.152-1.003 4.048-.838 4.213.165.165 1.848-1.184 3.74-2.997 4.672-4.477 10.061-6.843 16.528-7.258 10.84-.696 16.569 1.874 20.07 9.004 1.841 3.75 1.99 4.685 1.952 12.273-.037 7.511-.245 8.757-2.421 14.554-5.614 14.95-16.062 25.269-28.996 28.638-8.684 2.262-15.227.832-19.41-4.243l-2.196-2.664-1.009 3.465c-.555 1.906-2.276 8.206-3.825 14l-2.816 10.535-11.607.001c-7.506.001-11.607-.259-11.607-.736zm51.953-40.442c4.148-3.333 7.467-10.427 7.878-16.842.311-4.85.198-5.405-1.519-7.446-5.066-6.02-14.963-2.112-19.337 7.635-3.396 7.567-3.158 15.559.544 18.236 2.616 1.892 9.144 1.06 12.434-1.583zm50.907 20.036c0-.239 2.732-10.311 6.071-22.382s6.071-22.162 6.071-22.423c0-.261-4.667-.475-10.371-.475H457.21l.485-1.964c.266-1.08 1.348-5.018 2.404-8.75l1.919-6.786 32.689-.186c26.047-.148 32.624-.003 32.37.714-.175.495-1.245 4.508-2.378 8.918l-2.06 8.018-10.679.196-10.679.196-5.601 20c-3.081 11-5.932 21.205-6.336 22.679l-.734 2.679h-11.401c-6.271 0-11.401-.195-11.401-.434zm58.1-1.887c3.583-13.833 16.649-58.902 16.969-58.534.238.274 1.453 5.641 2.701 11.927s3.981 19.705 6.074 29.821l3.806 18.393h-29.966l.416-1.607zm46.68.632c1.861-3.178 44.175-58.928 44.343-58.424.151.452-13.028 48.38-15.989 58.149-.344 1.136-1.679 1.25-14.652 1.25-11.863 0-14.177-.165-13.702-.975zm54.75 1.378c-6.692-2.093-10.84-7.713-9.95-13.482.88-5.704 2.667-9.738 5.912-13.347 5.861-6.519 12.442-9.302 26.127-11.048 12.693-1.62 15.999-2.416 18.39-4.427 2.336-1.966 2.884-5.16 1.133-6.613-3.75-3.112-11.313-2.169-14.601 1.82l-2.015 2.445-11.49-.197-11.49-.197 1.755-3.692c5.155-10.842 16.804-16.041 36.344-16.222 14.241-.132 21.868 2.134 24.951 7.413 2.445 4.186 1.796 8.889-4.202 30.466-5.5 19.786-5.949 22.158-4.652 24.582.718 1.342.372 1.382-12.129 1.382h-12.869l.46-3.358.46-3.358-2.438 1.624c-9.567 6.372-21.32 8.83-29.696 6.211zm28.832-14.046c3.493-1.691 6.722-5.868 8.106-10.486.498-1.663.774-3.156.612-3.317-.388-.388-16.984 3.773-18.688 4.685-1.618.866-4.098 4.802-4.102 6.51-.001.688.64 1.893 1.426 2.679 1.999 1.999 8.444 1.963 12.646-.071zm60.568 13.616c-5.74-1.842-10.889-5.872-13.173-10.309-2.381-4.628-2.857-12.933-1.124-19.622 4.76-18.369 18.298-31.123 36.248-34.15 8.085-1.363 16.353-.507 22.576 2.34 7.866 3.598 10.788 8.081 10.814 16.59l.016 5.179h-23.572v-2.088c0-1.223-.794-3.031-1.915-4.364-1.797-2.136-2.148-2.256-5.721-1.96-2.86.237-4.471.848-6.478 2.458-7.693 6.169-12.171 23.998-7.324 29.158 1.354 1.442 2.373 1.796 5.169 1.796 1.915 0 4.392-.471 5.505-1.046 2.305-1.192 5.447-4.686 6.12-6.808.431-1.357 1.071-1.432 12.192-1.432 6.456 0 11.738.17 11.738.378s-1.009 2.377-2.242 4.821c-4.485 8.891-14.267 16.141-25.924 19.211-6.706 1.766-17.144 1.698-22.905-.151zm73.33-3.366a7986.25 7986.25 0 016.014-21.772c2.911-10.501 5.293-19.421 5.293-19.821 0-.46-3.681-.728-10-.728-5.5 0-10.005-.241-10.011-.536-.006-.295 1.017-4.313 2.274-8.929l2.285-8.393h64.904l-.418 1.607c-.23.884-1.302 4.902-2.384 8.929l-1.966 7.321h-20.806l-5.529 19.821a10587.5 10587.5 0 00-6.259 22.5l-.73 2.679h-23.39l.721-2.679zm75.02 3.04c-2.083-.586-4.46-1.425-5.282-1.865-2.819-1.509-7.838-6.648-9.312-9.536-3.318-6.497-2.209-17.578 2.827-28.246 1.995-4.227 3.827-6.64 8.685-11.438 6.805-6.721 13.295-10.52 21.464-12.563 6.47-1.618 18.446-1.14 22.993.917 4.722 2.136 8.851 6.156 11.118 10.825 1.735 3.572 1.967 4.877 1.986 11.187.012 3.929-.412 8.83-.942 10.893l-.964 3.75h-22.709c-20.049 0-22.76.132-23.143 1.13-1.554 4.05 1.18 9.397 5.54 10.834 3.818 1.258 7.907.404 11.614-2.425l3.138-2.396h21.466l-.844 1.607c-3.486 6.638-11.896 13.069-20.88 15.965-7.371 2.376-20.732 3.055-26.757 1.361zM896.106 41.2c-.072-3.768-1.844-6.49-5.114-7.856-6.136-2.564-14.813 2.349-16.956 9.6l-.481 1.626 11.304-.197 11.304-.197-.057-2.976z" fill="#fff"/></svg>